<?xml version="1.0" encoding="UTF-8"?>
<svg id="_Слой_2" data-name="Слой 2" xmlns="http://www.w3.org/2000/svg" viewBox="0 0 63 63">
  <defs>
    <style>
      .cls-1 {
        fill: #0082d9;
      }

      .cls-2 {
        fill: #2894dc;
      }

      .cls-3 {
        fill: #fff;
        stroke: #0082d9;
        stroke-miterlimit: 10;
        stroke-width: 3px;
      }
    </style>
  </defs>
  <g id="_Слой_1-2" data-name="Слой 1">
    <circle class="cls-3" cx="31.5" cy="31.5" r="30"/>
    <g>
      <path class="cls-2" d="m23.19,50.53c-1.59,0-2.88-1.29-2.88-2.88,0-.85.32-1.65.9-2.27l11.13-11.89c1.04-1.11,1.04-2.86,0-3.97l-11.13-11.89c-.58-.62-.9-1.42-.9-2.27,0-1.59,1.29-2.88,2.88-2.88.58,0,1.14.18,1.63.51l23.93,16.57c.64.44,1.02,1.17,1.02,1.95s-.38,1.51-1.02,1.95l-23.93,16.57c-.49.34-1.05.51-1.63.51Z"/>
      <path class="cls-1" d="m23.19,13.47c.36,0,.73.1,1.06.34l23.93,16.57c.79.55.79,1.71,0,2.25l-23.93,16.57c-.33.23-.7.34-1.06.34-.97,0-1.88-.77-1.88-1.88,0-.59.22-1.16.63-1.59l11.13-11.89c1.4-1.5,1.4-3.83,0-5.34l-11.13-11.89c-.4-.43-.63-1-.63-1.59,0-1.11.91-1.88,1.88-1.88m0-2h0c-2.14,0-3.88,1.74-3.88,3.88,0,1.1.41,2.15,1.17,2.95l11.13,11.89c.68.73.68,1.87,0,2.6l-11.13,11.89c-.75.8-1.17,1.85-1.17,2.95,0,2.14,1.74,3.88,3.88,3.88.78,0,1.55-.24,2.2-.69l23.93-16.57c.91-.63,1.45-1.67,1.45-2.77s-.54-2.14-1.45-2.77L25.39,12.16c-.65-.45-1.41-.69-2.2-.69h0Z"/>
    </g>
  </g>
</svg>