<?xml version="1.0" encoding="utf-8"?>
<!-- Generator: Adobe Illustrator 27.2.0, SVG Export Plug-In . SVG Version: 6.00 Build 0)  -->
<svg version="1.1" id="Layer_1" xmlns="http://www.w3.org/2000/svg" xmlns:xlink="http://www.w3.org/1999/xlink" x="0px" y="0px"
	 viewBox="0 0 504 180" enable-background="new 0 0 504 180" xml:space="preserve">
<g>
	<g>
		<defs>
			<rect id="SVGID_1_" width="504" height="180"/>
		</defs>
		
			<radialGradient id="SVGID_00000172426693663890551950000012166912494926635403_" cx="403.6848" cy="167.2348" r="304.6881" gradientTransform="matrix(1 0 0 1 0 1.380167e-03)" gradientUnits="userSpaceOnUse">
			<stop  offset="4.590078e-02" style="stop-color:#00C7FF"/>
			<stop  offset="0.3357" style="stop-color:#00B1F3"/>
			<stop  offset="1" style="stop-color:#0082D9"/>
		</radialGradient>
		<use xlink:href="#SVGID_1_"  overflow="visible" fill="url(#SVGID_00000172426693663890551950000012166912494926635403_)"/>
		<clipPath id="SVGID_00000012467667726076843660000003814176126814536373_">
			<use xlink:href="#SVGID_1_"  overflow="visible"/>
		</clipPath>
		<g opacity="0.2" clip-path="url(#SVGID_00000012467667726076843660000003814176126814536373_)">
			<polygon fill="#073DA6" points="240.1,177.2 212.3,193.2 212.3,201.2 270,201.2 270,194.5 			"/>
			<polygon fill="#02A0F8" points="336.8,201.2 336.8,194.5 306.9,177.2 276.9,194.5 276.9,201.2 			"/>
			<polygon fill="#0479D8" points="403.6,201.2 403.6,194.5 373.7,177.2 343.7,194.5 343.7,201.2 			"/>
			<polygon fill="#073DA6" points="470.4,201.2 470.4,194.5 440.5,177.2 410.5,194.5 410.5,201.2 			"/>
			<polygon fill="#02A0F8" points="523.9,201.2 523.9,186.8 507.2,177.2 477.3,194.5 477.3,201.2 			"/>
			<polygon fill="#00C7FF" points="303.8,169.7 303.8,135.1 273.9,117.8 243.9,135.1 243.9,169.7 273.9,187 			"/>
			<polygon fill="#0479D8" points="370.6,169.7 370.6,135.1 340.7,117.8 310.7,135.1 310.7,169.7 340.7,187 			"/>
			<polygon fill="#0479D8" points="437.4,169.7 437.4,135.1 407.4,117.8 377.5,135.1 377.5,169.7 407.4,187 			"/>
			<polygon fill="#073DA6" points="504.2,169.7 504.2,135.1 474.2,117.8 444.3,135.1 444.3,169.7 474.2,187 			"/>
			<polygon fill="#02A0F8" points="523.9,127.8 511.1,135.1 511.1,169.7 523.9,177.1 			"/>
			<polygon fill="#0082D9" points="403.6,111.6 403.6,77 373.7,59.8 343.7,77 343.7,111.6 373.7,128.9 			"/>
			<polygon fill="#02A0F8" points="470.4,111.6 470.4,77 440.5,59.8 410.5,77 410.5,111.6 440.5,128.9 			"/>
			<polygon fill="#0479D8" points="523.9,69.3 507.2,59.8 477.3,77 477.3,111.6 507.2,128.9 523.9,119.3 			"/>
			<polygon fill="#02A0F8" points="437.4,52.2 437.4,17.7 407.4,0.4 377.5,17.7 377.5,52.2 407.4,69.5 			"/>
			<polygon fill="#0479D8" points="504.2,52.2 504.2,17.7 474.2,0.4 444.3,17.7 444.3,52.2 474.2,69.5 			"/>
			<polygon fill="#02A0F8" points="523.9,10.3 511.1,17.7 511.1,52.2 523.9,59.6 			"/>
			<polygon fill="#02A0F8" points="343.7,-29.2 343.7,-5.8 373.7,11.4 403.6,-5.8 403.6,-29.2 			"/>
			<polygon fill="#073DA6" points="410.5,-29.2 410.5,-5.8 440.5,11.4 470.4,-5.8 470.4,-29.2 			"/>
			<polygon fill="#0479D8" points="523.9,-29.2 477.3,-29.2 477.3,-5.8 507.2,11.4 523.9,1.8 			"/>
		</g>
		<g opacity="0.5" clip-path="url(#SVGID_00000012467667726076843660000003814176126814536373_)">
			<polygon fill="#073DA6" points="177,-19.9 177,-14.2 216.5,8.6 256,-14.2 256,-19.9 			"/>
			<polygon fill="#02A0F8" points="88.9,-19.9 88.9,-14.2 128.4,8.6 167.9,-14.2 167.9,-19.9 			"/>
			<polygon fill="#0479D8" points="0.8,-19.9 0.8,-14.2 40.3,8.6 79.8,-14.2 79.8,-19.9 			"/>
			<polygon fill="#073DA6" points="-17.9,-19.9 -17.9,-8.7 -8.4,-14.2 -8.4,-19.9 			"/>
			<polygon fill="#073DA6" points="132.4,18.5 132.4,64.1 171.9,87 211.4,64.1 211.4,18.5 171.9,-4.3 			"/>
			<polygon fill="#0479D8" points="44.3,18.5 44.3,64.1 83.8,87 123.3,64.1 123.3,18.5 83.8,-4.3 			"/>
			<polygon fill="#0479D8" points="-17.9,79.1 -4.3,87 35.2,64.1 35.2,18.5 -4.3,-4.3 -17.9,3.6 			"/>
			<polygon fill="#073DA6" points="0.8,95.2 0.8,140.8 40.3,163.6 79.8,140.8 79.8,95.2 40.3,72.4 			"/>
			<polygon fill="#02A0F8" points="-17.9,146.3 -8.4,140.8 -8.4,95.2 -17.9,89.7 			"/>
			<polygon fill="#02A0F8" points="-17.9,210.5 35.2,210.5 35.2,173.5 -4.3,150.7 -17.9,158.5 			"/>
		</g>
		<g opacity="0.3" clip-path="url(#SVGID_00000012467667726076843660000003814176126814536373_)">
			<polygon fill="#02A0F8" points="134.5,-2.9 134.5,19.2 153.6,30.2 172.6,19.2 172.6,-2.9 153.6,-13.9 			"/>
			<polygon fill="#073DA6" points="91.9,-2.9 91.9,19.2 111,30.2 130.1,19.2 130.1,-2.9 111,-13.9 			"/>
			<polygon fill="#02A0F8" points="49.3,-2.9 49.3,19.2 68.4,30.2 87.5,19.2 87.5,-2.9 68.4,-13.9 			"/>
			<polygon fill="#0479D8" points="6.8,-2.9 6.8,19.2 25.8,30.2 44.9,19.2 44.9,-2.9 25.8,-13.9 			"/>
			<polygon fill="#073DA6" points="-14.3,28.8 2.4,19.2 2.4,-2.9 -14.3,-12.5 			"/>
			<polygon fill="#073DA6" points="70.4,35 70.4,57 89.5,68 108.5,57 108.5,35 89.5,23.9 			"/>
			<polygon fill="#0479D8" points="27.8,35 27.8,57 46.9,68 66,57 66,35 46.9,23.9 			"/>
			<polygon fill="#0479D8" points="-14.3,57.3 4.3,68 23.4,57 23.4,35 4.3,23.9 -14.3,34.7 			"/>
			<polygon fill="#073DA6" points="6.8,72 6.8,94 25.8,105 44.9,94 44.9,72 25.8,61 			"/>
			<polygon fill="#02A0F8" points="-14.3,103.6 2.4,94 2.4,72 -14.3,62.4 			"/>
			<polygon fill="#02A0F8" points="-14.3,132.1 4.3,142.9 23.4,131.9 23.4,109.8 4.3,98.8 -14.3,109.6 			"/>
			<polygon fill="#02A0F8" points="6.8,146.9 6.8,168.9 25.8,179.9 44.9,168.9 44.9,146.9 25.8,135.8 			"/>
			<polygon fill="#073DA6" points="-14.3,178.5 2.4,168.9 2.4,146.9 -14.3,137.2 			"/>
			<polygon fill="#073DA6" points="-14.3,207 -13.8,207.3 22.4,207.3 23.4,206.7 23.4,184.7 4.3,173.7 -14.3,184.4 			"/>
		</g>
		<g clip-path="url(#SVGID_00000012467667726076843660000003814176126814536373_)">
			<g>
				<g>
					
						<linearGradient id="SVGID_00000000926593132003679870000010664703454461140128_" gradientUnits="userSpaceOnUse" x1="179.588" y1="118.1969" x2="244.6615" y2="118.1969">
						<stop  offset="0" style="stop-color:#000000"/>
						<stop  offset="1" style="stop-color:#006AAA"/>
					</linearGradient>
					<polygon fill="url(#SVGID_00000000926593132003679870000010664703454461140128_)" points="206,154.4 207.1,154.3 211.1,86.8 
						217,121.5 223.5,121.5 225.1,116.5 227.1,121.5 230.5,121.5 233.7,134.1 238,112 240.7,121.5 244.7,121.5 244.7,120.7 
						241.6,120.7 237.8,107.4 233.6,129.2 231.5,120.7 227.9,120.7 225,113.4 222.6,120.7 218,120.7 211.3,82 210.3,82.1 
						206.2,149.6 201.3,120.7 196.3,120.7 193.4,115.9 190.3,120.7 188.4,120.7 185,107.5 181.6,120.7 179.6,120.7 179.6,121.5 
						182.5,121.5 185,111.8 187.5,121.5 191,121.5 193.3,117.8 195.5,121.5 200.3,121.5 					"/>
				</g>
				<g>
					
						<linearGradient id="SVGID_00000008142210295309192620000000328895044621372324_" gradientUnits="userSpaceOnUse" x1="114.5136" y1="118.1969" x2="179.588" y2="118.1969">
						<stop  offset="0" style="stop-color:#000000"/>
						<stop  offset="1" style="stop-color:#006AAA"/>
					</linearGradient>
					<polygon fill="url(#SVGID_00000008142210295309192620000000328895044621372324_)" points="140.9,154.4 142,154.3 146,86.8 
						152,121.5 158.4,121.5 160.1,116.5 162,121.5 165.5,121.5 168.6,134.1 173,112 175.7,121.5 179.6,121.5 179.6,120.7 
						176.6,120.7 172.8,107.4 168.5,129.2 166.4,120.7 162.9,120.7 160,113.4 157.5,120.7 152.9,120.7 146.3,82 145.2,82.1 
						141.2,149.6 136.2,120.7 131.2,120.7 128.3,115.9 125.2,120.7 123.3,120.7 119.9,107.5 116.5,120.7 114.5,120.7 114.5,121.5 
						117.4,121.5 119.9,111.8 122.4,121.5 125.9,121.5 128.3,117.8 130.5,121.5 135.2,121.5 					"/>
				</g>
				<g>
					
						<linearGradient id="SVGID_00000150812349967534347150000007014907695135541680_" gradientUnits="userSpaceOnUse" x1="49.4402" y1="118.1969" x2="114.5136" y2="118.1969">
						<stop  offset="0" style="stop-color:#000000"/>
						<stop  offset="1" style="stop-color:#006AAA"/>
					</linearGradient>
					<polygon fill="url(#SVGID_00000150812349967534347150000007014907695135541680_)" points="75.8,154.4 76.9,154.3 80.9,86.8 
						86.9,121.5 93.3,121.5 95,116.5 97,121.5 100.4,121.5 103.6,134.1 107.9,112 110.6,121.5 114.5,121.5 114.5,120.7 111.5,120.7 
						107.7,107.4 103.4,129.2 101.3,120.7 97.8,120.7 94.9,113.4 92.5,120.7 87.9,120.7 81.2,82 80.1,82.1 76.1,149.6 71.1,120.7 
						66.1,120.7 63.2,115.9 60.1,120.7 58.3,120.7 54.8,107.5 51.4,120.7 49.4,120.7 49.4,121.5 52.3,121.5 54.8,111.8 57.3,121.5 
						60.8,121.5 63.2,117.8 65.4,121.5 70.2,121.5 					"/>
				</g>
				<g>
					
						<linearGradient id="SVGID_00000118374752310756648120000003049169545066451857_" gradientUnits="userSpaceOnUse" x1="-3.4597" y1="118.1969" x2="49.4401" y2="118.1969">
						<stop  offset="0" style="stop-color:#000000"/>
						<stop  offset="1" style="stop-color:#006AAA"/>
					</linearGradient>
					<polygon fill="url(#SVGID_00000118374752310756648120000003049169545066451857_)" points="-3.5,118.4 -1.8,115.9 1,120.7 
						6.1,120.7 11,149.6 15,82.1 16.1,82 22.8,120.7 27.4,120.7 29.8,113.4 32.7,120.7 36.2,120.7 38.4,129.2 42.6,107.4 
						46.4,120.7 49.4,120.7 49.4,121.5 45.5,121.5 42.8,112 38.5,134.1 35.3,121.5 31.9,121.5 29.9,116.5 28.3,121.5 21.8,121.5 
						15.8,86.8 11.8,154.3 10.8,154.4 5.1,121.5 0.3,121.5 -1.9,117.8 -3.5,120.2 					"/>
				</g>
			</g>
		</g>
		<g clip-path="url(#SVGID_00000012467667726076843660000003814176126814536373_)">
			<g>
				
					<radialGradient id="SVGID_00000005266849818252266690000014975569004265523865_" cx="-9.3228" cy="121.6234" r="90.5347" gradientUnits="userSpaceOnUse">
					<stop  offset="4.863590e-02" style="stop-color:#306BC4"/>
					<stop  offset="8.484958e-02" style="stop-color:#2E67BC"/>
					<stop  offset="0.1405" style="stop-color:#295BA7"/>
					<stop  offset="0.2082" style="stop-color:#204884"/>
					<stop  offset="0.2591" style="stop-color:#193765"/>
					<stop  offset="0.3133" style="stop-color:#193765"/>
					<stop  offset="0.3687" style="stop-color:#142C52"/>
					<stop  offset="0.4708" style="stop-color:#0D1C34"/>
					<stop  offset="0.5793" style="stop-color:#07101D"/>
					<stop  offset="0.6956" style="stop-color:#03070D"/>
					<stop  offset="0.8252" style="stop-color:#010203"/>
					<stop  offset="0.9946" style="stop-color:#000000"/>
				</radialGradient>
				<path fill="url(#SVGID_00000005266849818252266690000014975569004265523865_)" d="M-6.2,31.1v181c48.6-1.6,87.4-41.5,87.4-90.5
					C81.2,72.6,42.4,32.8-6.2,31.1z"/>
				
					<radialGradient id="SVGID_00000060733067556922093100000008761202211809666459_" cx="-9.3221" cy="121.6221" r="57.1956" gradientUnits="userSpaceOnUse">
					<stop  offset="4.863590e-02" style="stop-color:#316FCB"/>
					<stop  offset="6.623004e-02" style="stop-color:#2F6BC3"/>
					<stop  offset="9.327410e-02" style="stop-color:#2A5FAE"/>
					<stop  offset="0.1264" style="stop-color:#224C8B"/>
					<stop  offset="0.164" style="stop-color:#16325A"/>
					<stop  offset="0.1789" style="stop-color:#112645"/>
					<stop  offset="0.2665" style="stop-color:#0D1D34"/>
					<stop  offset="0.4177" style="stop-color:#07101D"/>
					<stop  offset="0.5807" style="stop-color:#03070D"/>
					<stop  offset="0.7624" style="stop-color:#010203"/>
					<stop  offset="1" style="stop-color:#000000"/>
				</radialGradient>
				<path fill="url(#SVGID_00000060733067556922093100000008761202211809666459_)" d="M-6.2,64.5v114.3
					c30.2-1.6,54.1-26.6,54.1-57.2C47.9,91.1,24,66.1-6.2,64.5z"/>
			</g>
			<g>
				<g>
					
						<radialGradient id="SVGID_00000089546851831633603360000002581823053027582341_" cx="-251.4827" cy="3225.8594" r="114.5523" gradientTransform="matrix(1.7958 0 0 0.3011 442.2898 -849.6834)" gradientUnits="userSpaceOnUse">
						<stop  offset="4.863590e-02" style="stop-color:#306BC4"/>
						<stop  offset="8.484958e-02" style="stop-color:#2E67BC"/>
						<stop  offset="0.1405" style="stop-color:#295BA7"/>
						<stop  offset="0.2082" style="stop-color:#204884"/>
						<stop  offset="0.2591" style="stop-color:#193765"/>
						<stop  offset="0.3133" style="stop-color:#193765"/>
						<stop  offset="0.3687" style="stop-color:#142C52"/>
						<stop  offset="0.4708" style="stop-color:#0D1C34"/>
						<stop  offset="0.5793" style="stop-color:#07101D"/>
						<stop  offset="0.6956" style="stop-color:#03070D"/>
						<stop  offset="0.8252" style="stop-color:#010203"/>
						<stop  offset="0.9946" style="stop-color:#000000"/>
					</radialGradient>
					<path fill="url(#SVGID_00000089546851831633603360000002581823053027582341_)" d="M-6.2,87.1v69
						c112.2-0.3,202.6-15.6,202.6-34.5C196.4,102.7,106,87.4-6.2,87.1z"/>
					
						<radialGradient id="SVGID_00000085956185928611576730000011262627370603595169_" cx="-251.4827" cy="3225.8586" r="72.3991" gradientTransform="matrix(1.7958 0 0 0.3011 442.2898 -849.6834)" gradientUnits="userSpaceOnUse">
						<stop  offset="4.863590e-02" style="stop-color:#316FCB"/>
						<stop  offset="6.623004e-02" style="stop-color:#2F6BC3"/>
						<stop  offset="9.327410e-02" style="stop-color:#2A5FAE"/>
						<stop  offset="0.1264" style="stop-color:#224C8B"/>
						<stop  offset="0.164" style="stop-color:#16325A"/>
						<stop  offset="0.1789" style="stop-color:#112645"/>
						<stop  offset="0.2665" style="stop-color:#0D1D34"/>
						<stop  offset="0.4177" style="stop-color:#07101D"/>
						<stop  offset="0.5807" style="stop-color:#03070D"/>
						<stop  offset="0.7624" style="stop-color:#010203"/>
						<stop  offset="1" style="stop-color:#000000"/>
					</radialGradient>
					<path fill="url(#SVGID_00000085956185928611576730000011262627370603595169_)" d="M-6.2,99.8v43.6
						c70.4-0.3,126.9-9.9,126.9-21.8C120.7,109.8,64.2,100.1-6.2,99.8z"/>
				</g>
				<g>
					
						<radialGradient id="SVGID_00000072962238123392480480000002604261640439552911_" cx="-251.4827" cy="19882.3184" r="114.5478" gradientTransform="matrix(1.7958 0 0 6.340000e-02 442.2898 -1138.9171)" gradientUnits="userSpaceOnUse">
						<stop  offset="4.863590e-02" style="stop-color:#306BC4"/>
						<stop  offset="8.484958e-02" style="stop-color:#2E67BC"/>
						<stop  offset="0.1405" style="stop-color:#295BA7"/>
						<stop  offset="0.2082" style="stop-color:#204884"/>
						<stop  offset="0.2591" style="stop-color:#193765"/>
						<stop  offset="0.3133" style="stop-color:#193765"/>
						<stop  offset="0.3687" style="stop-color:#142C52"/>
						<stop  offset="0.4708" style="stop-color:#0D1C34"/>
						<stop  offset="0.5793" style="stop-color:#07101D"/>
						<stop  offset="0.6956" style="stop-color:#03070D"/>
						<stop  offset="0.8252" style="stop-color:#010203"/>
						<stop  offset="0.9946" style="stop-color:#000000"/>
					</radialGradient>
					<path fill="url(#SVGID_00000072962238123392480480000002604261640439552911_)" d="M-6.2,114.4v14.5
						c112.2-0.1,202.6-3.3,202.6-7.3C196.4,117.6,106,114.4-6.2,114.4z"/>
					
						<radialGradient id="SVGID_00000160906970263580846660000002119371726054834616_" cx="-251.4827" cy="19882.3281" r="72.3986" gradientTransform="matrix(1.7958 0 0 6.340000e-02 442.2898 -1138.9171)" gradientUnits="userSpaceOnUse">
						<stop  offset="4.863590e-02" style="stop-color:#316FCB"/>
						<stop  offset="6.623004e-02" style="stop-color:#2F6BC3"/>
						<stop  offset="9.327410e-02" style="stop-color:#2A5FAE"/>
						<stop  offset="0.1264" style="stop-color:#224C8B"/>
						<stop  offset="0.164" style="stop-color:#16325A"/>
						<stop  offset="0.1789" style="stop-color:#112645"/>
						<stop  offset="0.2665" style="stop-color:#0D1D34"/>
						<stop  offset="0.4177" style="stop-color:#07101D"/>
						<stop  offset="0.5807" style="stop-color:#03070D"/>
						<stop  offset="0.7624" style="stop-color:#010203"/>
						<stop  offset="1" style="stop-color:#000000"/>
					</radialGradient>
					<path fill="url(#SVGID_00000160906970263580846660000002119371726054834616_)" d="M-6.2,117v9.2c70.4-0.1,126.9-2.1,126.9-4.6
						C120.7,119.1,64.2,117.1-6.2,117z"/>
				</g>
			</g>
		</g>
		<g opacity="0.6" clip-path="url(#SVGID_00000012467667726076843660000003814176126814536373_)">
			<polygon fill="#00C7FF" points="365.6,-5.9 365.6,14.2 348.1,24.3 330.7,14.2 330.7,-5.9 348.1,-16 			"/>
			<polygon fill="#0082D9" points="404.6,-5.9 404.6,14.2 387.1,24.3 369.7,14.2 369.7,-5.9 387.1,-16 			"/>
			<polygon fill="#02A0F8" points="443.6,-5.9 443.6,14.2 426.1,24.3 408.6,14.2 408.6,-5.9 426.1,-16 			"/>
			<polygon fill="#0479D8" points="482.6,-5.9 482.6,14.2 465.1,24.3 447.6,14.2 447.6,-5.9 465.1,-16 			"/>
			<polygon fill="#0082D9" points="521.5,-5.9 521.5,14.2 504.1,24.3 486.6,14.2 486.6,-5.9 504.1,-16 			"/>
			<polygon fill="#02A0F8" points="560.5,-5.9 560.5,14.2 543,24.3 525.6,14.2 525.6,-5.9 543,-16 			"/>
			<polygon fill="#00C7FF" points="424.3,28.7 424.3,48.9 406.8,59 389.4,48.9 389.4,28.7 406.8,18.6 			"/>
			<polygon fill="#00C7FF" points="463.3,28.7 463.3,48.9 445.8,59 428.3,48.9 428.3,28.7 445.8,18.6 			"/>
			<polygon fill="#0082D9" points="502.3,28.7 502.3,48.9 484.8,59 467.3,48.9 467.3,28.7 484.8,18.6 			"/>
			<polygon fill="#073DA6" points="541.2,28.7 541.2,48.9 523.8,59 506.3,48.9 506.3,28.7 523.8,18.6 			"/>
			<polygon fill="#02A0F8" points="565.1,57.6 562.7,59 545.3,48.9 545.3,28.7 562.7,18.6 565.1,20 			"/>
			<polygon fill="#00C7FF" points="482.6,62.6 482.6,82.8 465.1,92.9 447.6,82.8 447.6,62.6 465.1,52.5 			"/>
			<polygon fill="#02A0F8" points="521.5,62.6 521.5,82.8 504.1,92.9 486.6,82.8 486.6,62.6 504.1,52.5 			"/>
			<polygon fill="#0479D8" points="560.5,62.6 560.5,82.8 543,92.9 525.6,82.8 525.6,62.6 543,52.5 			"/>
			<polygon fill="#00C7FF" points="502.3,97.3 502.3,117.4 484.8,127.5 467.3,117.4 467.3,97.3 484.8,87.2 			"/>
			<polygon fill="#0479D8" points="541.2,97.3 541.2,117.4 523.8,127.5 506.3,117.4 506.3,97.3 523.8,87.2 			"/>
			<polygon fill="#02A0F8" points="565.1,126.2 562.7,127.5 545.3,117.4 545.3,97.3 562.7,87.2 565.1,88.5 			"/>
			<polygon fill="#00C7FF" points="482.6,131.2 482.6,151.3 465.1,161.4 447.6,151.3 447.6,131.2 465.1,121.1 			"/>
			<polygon fill="#00C7FF" points="521.5,131.2 521.5,151.3 504.1,161.4 486.6,151.3 486.6,131.2 504.1,121.1 			"/>
			<polygon fill="#0479D8" points="560.5,131.2 560.5,151.3 543,161.4 525.6,151.3 525.6,131.2 543,121.1 			"/>
			<polygon fill="#00C7FF" points="468.7,186.8 467.3,186 467.3,165.8 484.8,155.7 502.3,165.8 502.3,186 500.9,186.8 			"/>
			<polygon fill="#02A0F8" points="507.7,186.8 506.3,186 506.3,165.8 523.8,155.7 541.2,165.8 541.2,186 539.8,186.8 			"/>
			<polygon fill="#073DA6" points="565.1,186.8 546.7,186.8 545.3,186 545.3,165.8 562.7,155.7 565.1,157.1 			"/>
		</g>
	</g>
</g>
</svg>
