<?xml version="1.0" encoding="UTF-8"?>
<svg xmlns="http://www.w3.org/2000/svg" xmlns:xlink="http://www.w3.org/1999/xlink" viewBox="0 0 504 180">
  <defs>
    <style>
      .cls-1 {
        fill: url(#linear-gradient-2);
      }

      .cls-2 {
        fill: url(#radial-gradient-7);
      }

      .cls-2, .cls-3, .cls-4 {
        mix-blend-mode: color-dodge;
      }

      .cls-5 {
        opacity: .2;
      }

      .cls-5, .cls-6 {
        mix-blend-mode: multiply;
      }

      .cls-7 {
        isolation: isolate;
      }

      .cls-8 {
        fill: #073da6;
      }

      .cls-3 {
        fill: url(#radial-gradient-3);
      }

      .cls-4 {
        fill: url(#radial-gradient-5);
      }

      .cls-9 {
        fill: url(#radial-gradient);
      }

      .cls-10 {
        fill: #0479d8;
      }

      .cls-11 {
        fill: #02a0f8;
      }

      .cls-12, .cls-13, .cls-14, .cls-15, .cls-16 {
        mix-blend-mode: screen;
      }

      .cls-17 {
        mix-blend-mode: lighten;
        opacity: .5;
      }

      .cls-18 {
        clip-path: url(#clippath);
      }

      .cls-13 {
        opacity: .3;
      }

      .cls-14 {
        fill: url(#radial-gradient-2);
      }

      .cls-15 {
        fill: url(#radial-gradient-4);
      }

      .cls-6 {
        opacity: .6;
      }

      .cls-16 {
        fill: url(#radial-gradient-6);
      }

      .cls-19 {
        fill: url(#linear-gradient-3);
      }

      .cls-20 {
        fill: url(#linear-gradient);
      }

      .cls-21 {
        fill: url(#linear-gradient-4);
      }
    </style>
    <radialGradient id="radial-gradient" cx="403.68" cy="167.24" fx="403.68" fy="167.24" r="304.69" gradientUnits="userSpaceOnUse">
      <stop offset=".34" stop-color="#0047b1"/>
      <stop offset=".64" stop-color="#002997"/>
      <stop offset="1" stop-color="#000074"/>
    </radialGradient>
    <clipPath id="clippath">
      <rect class="cls-9" width="504" height="180"/>
    </clipPath>
    <linearGradient id="linear-gradient" x1="-459.23" y1="118.2" x2="-269.36" y2="118.2" gradientTransform="translate(-226.6) rotate(-180) scale(1 -1)" gradientUnits="userSpaceOnUse">
      <stop offset="0" stop-color="#000"/>
      <stop offset="1" stop-color="#006aaa"/>
    </linearGradient>
    <linearGradient id="linear-gradient-2" x1="-459.23" x2="-269.36" xlink:href="#linear-gradient"/>
    <linearGradient id="linear-gradient-3" x1="-459.23" x2="-269.36" xlink:href="#linear-gradient"/>
    <linearGradient id="linear-gradient-4" x1="-459.23" x2="-269.36" xlink:href="#linear-gradient"/>
    <radialGradient id="radial-gradient-2" cx="-9.32" cy="121.62" fx="-9.32" fy="121.62" r="90.53" gradientUnits="userSpaceOnUse">
      <stop offset=".05" stop-color="#306bc4"/>
      <stop offset=".08" stop-color="#2e66bc"/>
      <stop offset=".14" stop-color="#285aa6"/>
      <stop offset=".21" stop-color="#204783"/>
      <stop offset=".26" stop-color="#193765"/>
      <stop offset=".31" stop-color="#193765"/>
      <stop offset=".37" stop-color="#142c51"/>
      <stop offset=".47" stop-color="#0c1c34"/>
      <stop offset=".58" stop-color="#070f1d"/>
      <stop offset=".7" stop-color="#03060c"/>
      <stop offset=".83" stop-color="#000103"/>
      <stop offset=".99" stop-color="#000"/>
    </radialGradient>
    <radialGradient id="radial-gradient-3" cx="-9.32" cy="121.62" fx="-9.32" fy="121.62" r="57.2" gradientUnits="userSpaceOnUse">
      <stop offset=".05" stop-color="#316fcb"/>
      <stop offset=".07" stop-color="#2f6ac3"/>
      <stop offset=".09" stop-color="#2a5fad"/>
      <stop offset=".13" stop-color="#214b8a"/>
      <stop offset=".16" stop-color="#16315a"/>
      <stop offset=".18" stop-color="#112645"/>
      <stop offset=".27" stop-color="#0c1c33"/>
      <stop offset=".42" stop-color="#07101d"/>
      <stop offset=".58" stop-color="#03070c"/>
      <stop offset=".76" stop-color="#000103"/>
      <stop offset="1" stop-color="#000"/>
    </radialGradient>
    <radialGradient id="radial-gradient-4" cx="-251.48" cy="3225.86" fx="-251.48" fy="3225.86" r="114.55" gradientTransform="translate(442.29 -849.68) scale(1.8 .3)" xlink:href="#radial-gradient-2"/>
    <radialGradient id="radial-gradient-5" cx="-251.48" cy="3225.86" fx="-251.48" fy="3225.86" r="72.4" gradientTransform="translate(442.29 -849.68) scale(1.8 .3)" xlink:href="#radial-gradient-3"/>
    <radialGradient id="radial-gradient-6" cx="-251.48" cy="19882.32" fx="-251.48" fy="19882.32" r="114.55" gradientTransform="translate(442.29 -1138.92) scale(1.8 .06)" xlink:href="#radial-gradient-2"/>
    <radialGradient id="radial-gradient-7" cx="-251.48" cy="19882.33" fx="-251.48" fy="19882.33" r="72.4" gradientTransform="translate(442.29 -1138.92) scale(1.8 .06)" xlink:href="#radial-gradient-3"/>
  </defs>
  <g class="cls-7">
    <g id="_Слой_2" data-name="Слой 2">
      <g id="Layer_1" data-name="Layer 1">
        <g>
          <rect class="cls-9" width="504" height="180"/>
          <g class="cls-18">
            <g class="cls-5">
              <polygon class="cls-8" points="240.09 177.21 212.31 193.24 212.31 201.16 270.02 201.16 270.02 194.5 240.09 177.21"/>
              <polygon class="cls-11" points="336.81 201.16 336.81 194.5 306.87 177.21 276.93 194.5 276.93 201.16 336.81 201.16"/>
              <polygon class="cls-10" points="403.6 201.16 403.6 194.5 373.66 177.21 343.72 194.5 343.72 201.16 403.6 201.16"/>
              <polygon class="cls-8" points="470.39 201.16 470.39 194.5 440.45 177.21 410.51 194.5 410.51 201.16 470.39 201.16"/>
              <polygon class="cls-11" points="523.86 201.16 523.86 186.8 507.24 177.21 477.3 194.5 477.3 201.16 523.86 201.16"/>
              <polygon class="cls-8" points="303.8 169.7 303.8 135.13 273.86 117.84 243.92 135.13 243.92 169.7 273.86 186.99 303.8 169.7"/>
              <polygon class="cls-10" points="370.59 169.7 370.59 135.13 340.65 117.84 310.71 135.13 310.71 169.7 340.65 186.99 370.59 169.7"/>
              <polygon class="cls-10" points="437.38 169.7 437.38 135.13 407.44 117.84 377.5 135.13 377.5 169.7 407.44 186.99 437.38 169.7"/>
              <polygon class="cls-8" points="504.17 169.7 504.17 135.13 474.23 117.84 444.29 135.13 444.29 169.7 474.23 186.99 504.17 169.7"/>
              <polygon class="cls-8" points="403.6 111.61 403.6 77.04 373.66 59.75 343.72 77.04 343.72 111.61 373.66 128.9 403.6 111.61"/>
              <polygon class="cls-11" points="470.39 111.61 470.39 77.04 440.45 59.75 410.51 77.04 410.51 111.61 440.45 128.9 470.39 111.61"/>
              <polygon class="cls-10" points="523.86 69.35 507.24 59.75 477.3 77.04 477.3 111.61 507.24 128.9 523.86 119.3 523.86 69.35"/>
              <polygon class="cls-11" points="437.38 52.24 437.38 17.67 407.44 .39 377.5 17.67 377.5 52.24 407.44 69.53 437.38 52.24"/>
              <polygon class="cls-10" points="504.17 52.24 504.17 17.67 474.23 .39 444.29 17.67 444.29 52.24 474.23 69.53 504.17 52.24"/>
              <polygon class="cls-11" points="343.72 -29.2 343.72 -5.84 373.66 11.44 403.6 -5.84 403.6 -29.2 343.72 -29.2"/>
              <polygon class="cls-8" points="410.51 -29.2 410.51 -5.84 440.45 11.44 470.39 -5.84 470.39 -29.2 410.51 -29.2"/>
              <polygon class="cls-10" points="523.86 -29.2 477.3 -29.2 477.3 -5.84 507.24 11.44 523.86 1.85 523.86 -29.2"/>
            </g>
            <g class="cls-17">
              <polygon class="cls-8" points="176.99 -19.85 176.99 -14.17 216.49 8.63 255.98 -14.17 255.98 -19.85 176.99 -19.85"/>
              <polygon class="cls-11" points="88.87 -19.85 88.87 -14.17 128.37 8.63 167.87 -14.17 167.87 -19.85 88.87 -19.85"/>
              <polygon class="cls-10" points=".76 -19.85 .76 -14.17 40.26 8.63 79.76 -14.17 79.76 -19.85 .76 -19.85"/>
              <polygon class="cls-8" points="132.42 18.54 132.42 64.15 171.92 86.95 211.42 64.15 211.42 18.54 171.92 -4.27 132.42 18.54"/>
              <polygon class="cls-10" points="44.31 18.54 44.31 64.15 83.81 86.95 123.31 64.15 123.31 18.54 83.81 -4.27 44.31 18.54"/>
              <polygon class="cls-10" points="-17.88 79.11 -4.3 86.95 35.2 64.15 35.2 18.54 -4.3 -4.27 -17.88 3.57 -17.88 79.11"/>
              <polygon class="cls-8" points=".76 95.17 .76 140.78 40.26 163.59 79.76 140.78 79.76 95.17 40.26 72.37 .76 95.17"/>
              <polygon class="cls-11" points="-17.88 210.52 35.2 210.52 35.2 173.49 -4.3 150.69 -17.88 158.53 -17.88 210.52"/>
            </g>
            <g class="cls-13">
              <polygon class="cls-11" points="134.48 -2.88 134.48 19.16 153.56 30.17 172.65 19.16 172.65 -2.88 153.56 -13.9 134.48 -2.88"/>
              <polygon class="cls-8" points="91.91 -2.88 91.91 19.16 110.99 30.17 130.07 19.16 130.07 -2.88 110.99 -13.9 91.91 -2.88"/>
              <polygon class="cls-11" points="49.34 -2.88 49.34 19.16 68.42 30.17 87.5 19.16 87.5 -2.88 68.42 -13.9 49.34 -2.88"/>
              <polygon class="cls-10" points="6.76 -2.88 6.76 19.16 25.85 30.17 44.93 19.16 44.93 -2.88 25.85 -13.9 6.76 -2.88"/>
              <polygon class="cls-8" points="-14.31 28.78 2.36 19.16 2.36 -2.88 -14.31 -12.5 -14.31 28.78"/>
              <polygon class="cls-8" points="70.38 34.96 70.38 57 89.46 68.02 108.54 57 108.54 34.96 89.46 23.94 70.38 34.96"/>
              <polygon class="cls-10" points="27.81 34.96 27.81 57 46.89 68.02 65.97 57 65.97 34.96 46.89 23.94 27.81 34.96"/>
              <polygon class="cls-10" points="-14.31 57.26 4.32 68.02 23.4 57 23.4 34.96 4.32 23.94 -14.31 34.7 -14.31 57.26"/>
              <polygon class="cls-8" points="6.76 71.99 6.76 94.02 25.85 105.04 44.93 94.02 44.93 71.99 25.85 60.97 6.76 71.99"/>
              <polygon class="cls-11" points="-14.31 103.65 2.36 94.02 2.36 71.99 -14.31 62.36 -14.31 103.65"/>
              <polygon class="cls-11" points="-14.31 132.13 4.32 142.88 23.4 131.86 23.4 109.83 4.32 98.81 -14.31 109.56 -14.31 132.13"/>
              <polygon class="cls-11" points="6.76 146.85 6.76 168.89 25.85 179.91 44.93 168.89 44.93 146.85 25.85 135.84 6.76 146.85"/>
              <polygon class="cls-8" points="-14.31 178.51 2.36 168.89 2.36 146.85 -14.31 137.23 -14.31 178.51"/>
              <polygon class="cls-8" points="-14.31 206.99 -13.76 207.31 22.4 207.31 23.4 206.73 23.4 184.69 4.32 173.68 -14.31 184.43 -14.31 206.99"/>
            </g>
            <g class="cls-12">
              <g>
                <polygon class="cls-20" points="205.97 154.35 207.06 154.32 211.06 86.81 217.05 121.46 223.47 121.46 225.13 116.46 227.11 121.46 230.53 121.46 233.71 134.14 238.03 111.97 240.75 121.46 244.66 121.46 244.66 120.71 241.64 120.71 237.83 107.36 233.58 129.18 231.45 120.71 227.94 120.71 225.03 113.37 222.6 120.71 218.02 120.71 211.34 82.04 210.25 82.07 206.25 149.56 201.29 120.71 196.27 120.71 193.38 115.94 190.25 120.71 188.41 120.71 184.99 107.52 181.58 120.71 179.59 120.71 179.59 121.46 182.49 121.46 184.99 111.81 187.49 121.46 190.96 121.46 193.34 117.83 195.54 121.46 200.32 121.46 205.97 154.35"/>
                <polygon class="cls-1" points="140.9 154.35 141.99 154.32 145.99 86.82 151.97 121.46 158.4 121.46 160.05 116.46 162.04 121.46 165.46 121.46 168.64 134.14 172.96 111.97 175.67 121.46 179.59 121.46 179.59 120.71 176.57 120.71 172.75 107.36 168.5 129.18 166.38 120.71 162.87 120.71 159.96 113.36 157.53 120.71 152.94 120.71 146.27 82.04 145.18 82.07 141.18 149.56 136.22 120.71 131.2 120.71 128.3 115.94 125.18 120.71 123.33 120.71 119.92 107.52 116.5 120.71 114.51 120.71 114.51 121.46 117.42 121.46 119.92 111.8 122.42 121.46 125.88 121.46 128.26 117.83 130.47 121.46 135.24 121.46 140.9 154.35"/>
                <polygon class="cls-19" points="75.82 154.35 76.91 154.32 80.92 86.82 86.9 121.46 93.33 121.46 94.98 116.46 96.96 121.46 100.39 121.46 103.57 134.14 107.88 111.97 110.6 121.46 114.51 121.46 114.51 120.71 111.49 120.71 107.68 107.36 103.43 129.18 101.31 120.71 97.8 120.71 94.88 113.37 92.46 120.71 87.87 120.71 81.19 82.04 80.11 82.07 76.1 149.56 71.14 120.71 66.12 120.71 63.23 115.94 60.1 120.71 58.26 120.71 54.85 107.52 51.43 120.71 49.44 120.71 49.44 121.46 52.34 121.46 54.85 111.8 57.35 121.46 60.81 121.46 63.19 117.83 65.4 121.46 70.17 121.46 75.82 154.35"/>
                <polygon class="cls-21" points="-3.46 118.4 -1.84 115.94 1.05 120.71 6.07 120.71 11.03 149.56 15.03 82.07 16.12 82.04 22.79 120.71 27.38 120.71 29.81 113.36 32.72 120.71 36.23 120.71 38.36 129.18 42.61 107.36 46.42 120.71 49.44 120.71 49.44 121.46 45.52 121.46 42.81 111.97 38.49 134.14 35.31 121.46 31.89 121.46 29.91 116.46 28.25 121.46 21.82 121.46 15.84 86.82 11.84 154.32 10.75 154.35 5.1 121.46 .32 121.46 -1.88 117.83 -3.46 120.23 -3.46 118.4"/>
              </g>
            </g>
            <g>
              <g>
                <path class="cls-14" d="m-6.2,31.12v181.01c48.57-1.64,87.45-41.53,87.45-90.51S42.37,32.76-6.2,31.12Z"/>
                <path class="cls-3" d="m-6.2,64.47v114.3c30.16-1.62,54.12-26.58,54.12-57.15S23.96,66.09-6.2,64.47Z"/>
              </g>
              <g>
                <g>
                  <path class="cls-15" d="m-6.2,87.14v68.97c112.19-.28,202.62-15.61,202.62-34.49S105.99,87.42-6.2,87.14Z"/>
                  <path class="cls-4" d="m-6.2,99.83v43.59c70.38-.28,126.92-9.93,126.92-21.8s-56.54-21.52-126.92-21.79Z"/>
                </g>
                <g>
                  <path class="cls-16" d="m-6.2,114.36v14.52c112.19-.06,202.62-3.29,202.62-7.26s-90.43-7.2-202.62-7.26Z"/>
                  <path class="cls-2" d="m-6.2,117.03v9.18c70.38-.06,126.92-2.09,126.92-4.59s-56.54-4.53-126.92-4.59Z"/>
                </g>
              </g>
            </g>
            <g class="cls-6">
              <polygon class="cls-11" points="365.62 -5.94 365.62 14.24 348.15 24.33 330.67 14.24 330.67 -5.94 348.15 -16.02 365.62 -5.94"/>
              <polygon class="cls-8" points="404.6 -5.94 404.6 14.24 387.12 24.33 369.65 14.24 369.65 -5.94 387.12 -16.02 404.6 -5.94"/>
              <polygon class="cls-11" points="443.57 -5.94 443.57 14.24 426.1 24.33 408.63 14.24 408.63 -5.94 426.1 -16.02 443.57 -5.94"/>
              <polygon class="cls-10" points="482.55 -5.94 482.55 14.24 465.08 24.33 447.61 14.24 447.61 -5.94 465.08 -16.02 482.55 -5.94"/>
              <polygon class="cls-8" points="521.53 -5.94 521.53 14.24 504.06 24.33 486.58 14.24 486.58 -5.94 504.06 -16.02 521.53 -5.94"/>
              <polygon class="cls-8" points="424.31 28.71 424.31 48.89 406.84 58.98 389.36 48.89 389.36 28.71 406.84 18.62 424.31 28.71"/>
              <polygon class="cls-10" points="463.29 28.71 463.29 48.89 445.81 58.98 428.34 48.89 428.34 28.71 445.81 18.62 463.29 28.71"/>
              <polygon class="cls-10" points="502.27 28.71 502.27 48.89 484.79 58.98 467.32 48.89 467.32 28.71 484.79 18.62 502.27 28.71"/>
              <polygon class="cls-8" points="482.55 62.61 482.55 82.79 465.08 92.88 447.61 82.79 447.61 62.61 465.08 52.52 482.55 62.61"/>
              <polygon class="cls-11" points="521.53 62.61 521.53 82.79 504.06 92.88 486.58 82.79 486.58 62.61 504.06 52.52 521.53 62.61"/>
              <polygon class="cls-11" points="502.27 97.26 502.27 117.43 484.79 127.52 467.32 117.43 467.32 97.26 484.79 87.17 502.27 97.26"/>
              <polygon class="cls-11" points="482.55 131.16 482.55 151.34 465.08 161.42 447.61 151.34 447.61 131.16 465.08 121.07 482.55 131.16"/>
              <polygon class="cls-8" points="521.53 131.16 521.53 151.34 504.06 161.42 486.58 151.34 486.58 131.16 504.06 121.07 521.53 131.16"/>
              <polygon class="cls-8" points="468.73 186.8 467.32 185.98 467.32 165.81 484.79 155.72 502.27 165.81 502.27 185.98 500.86 186.8 468.73 186.8"/>
            </g>
          </g>
        </g>
      </g>
    </g>
  </g>
</svg>