<?xml version="1.0" encoding="UTF-8"?>
<svg id="_Слой_2" data-name="Слой 2" xmlns="http://www.w3.org/2000/svg" viewBox="0 0 177.56 193.53">
  <defs>
    <style>
      .cls-1 {
        stroke-linecap: round;
      }

      .cls-1, .cls-2 {
        fill: none;
        stroke: #1a1a1a;
        stroke-linejoin: round;
        stroke-width: 4px;
      }

      .cls-3 {
        fill: #00c7ff;
      }
    </style>
  </defs>
  <g id="_Слой_1-2" data-name="Слой 1">
    <path class="cls-3" d="m69.96,187.18C-.44,149.42,14.28,56,14.28,56c51-3,81-41,81-41,0,0,30,38,81,41,0,0,14.72,93.42-55.68,131.18-15.79,8.47-34.85,8.47-50.64,0Z"/>
    <path class="cls-1" d="m141.29,147.54c-7.93,10.22-18.26,19.44-31.68,26.64-15.79,8.47-34.85,8.47-50.64,0C-11.44,136.42,3.28,43,3.28,43,54.28,40,84.28,2,84.28,2c0,0,30,38,81,41,0,0,6.9,43.79-11.34,83.53"/>
    <polygon class="cls-2" points="112.28 90 112.28 110 94.29 110 94.27 127.99 74.27 127.99 74.27 109.99 56.28 109.99 56.28 89.99 74.28 89.98 74.28 71.99 94.28 71.99 94.29 89.99 112.28 90"/>
  </g>
</svg>